<?xml version="1.0" standalone="no"?><!DOCTYPE svg PUBLIC "-//W3C//DTD SVG 1.1//EN" "http://www.w3.org/Graphics/SVG/1.1/DTD/svg11.dtd"><svg t="1586532126788" class="icon" viewBox="0 0 1024 1024" version="1.1" xmlns="http://www.w3.org/2000/svg" p-id="1170" xmlns:xlink="http://www.w3.org/1999/xlink" width="200" height="200"><defs><style type="text/css">html, * { user-select: text !important; }
</style></defs><path d="M513.4 85.77C273.56 85.77 75.8 283.1 75.8 522.4S273.56 959 513.4 959 951 761.71 951 522.4 753.24 85.77 513.4 85.77z m0 831.27C294.6 917 117.88 740.71 117.88 522.4S294.6 127.76 513.4 127.76 908.92 304.09 908.92 522.4 732.2 917 513.4 917z" p-id="1171" style="user-select: auto;"></path><path d="M513.4 969a440.65 440.65 0 0 1-173.47-35.37 453.74 453.74 0 0 1-238.68-238.12 440.39 440.39 0 0 1 0-346.22 453.74 453.74 0 0 1 238.68-238.15 443.07 443.07 0 0 1 346.94 0 453.74 453.74 0 0 1 238.68 238.15 440.39 440.39 0 0 1 0 346.22 453.74 453.74 0 0 1-238.68 238.15A440.65 440.65 0 0 1 513.4 969z m0-873.26a420.79 420.79 0 0 0-165.64 33.78 433.67 433.67 0 0 0-228.12 227.6 420.4 420.4 0 0 0 0 330.5 433.67 433.67 0 0 0 228.12 227.6 423 423 0 0 0 331.28 0 433.67 433.67 0 0 0 228.12-227.6 420.4 420.4 0 0 0 0-330.5A433.67 433.67 0 0 0 679 129.55a420.79 420.79 0 0 0-165.6-33.78z m0 831.27a404.64 404.64 0 1 1 158-31.74 404.85 404.85 0 0 1-158 31.73z m0-789.28c-103.15 0-200 40-272.75 112.53S127.88 419.49 127.88 522.4 167.93 722 240.65 794.51 410.25 907 513.4 907s200-40 272.75-112.53S898.92 625.31 898.92 522.4s-40-199.55-112.77-272.11-169.6-112.53-272.75-112.53z" p-id="1172" style="user-select: auto;"></path><path d="M710.82 630.24C663.37 690.63 590 729.45 512.4 729.45s-146.66-34.51-198.4-94.9c-8.63-8.63-21.57-12.94-30.19-4.31-8.63 4.31-8.63 21.56 0 30.19 56.07 73.33 138 112.15 228.61 112.15s176.85-43.13 232.93-112.15c8.62-8.63 4.31-21.57-4.32-30.19-12.96-8.63-25.9-8.63-30.21 0z" p-id="1173" style="user-select: auto;"></path><path d="M512.4 782.58c-95.11 0-179-41-236.2-115.6-6.81-7.18-10.13-18.28-8.47-28.51 1.17-7.2 4.8-13.05 10.06-16.33a25.91 25.91 0 0 1 23-6c7.13 1.42 14.31 5.46 20.21 11.36l0.52 0.56c25.13 29.32 54.16 52.06 86.27 67.6a238 238 0 0 0 104.61 23.79c72.12 0 143.1-35.4 190-94.73a21.4 21.4 0 0 1 13.32-10.08c9-2.4 20.27 0.25 30.81 7.28l0.82 0.54 0.7 0.71c13.95 13.93 15.95 32.3 4.75 43.92-58.95 72.33-148.8 115.49-240.4 115.49z m-224-143.46a8 8 0 0 0-1.05 4.4c-0.05 3.78 1.34 7.64 3.54 9.84l0.47 0.47 0.4 0.53c53.34 69.79 131.71 108.22 220.64 108.22 85.81 0 170-40.54 225.17-108.46l0.32-0.4 0.37-0.36c1.08-1.08 2.24-2.75 1.57-6.07a20.17 20.17 0 0 0-5.21-9.28c-5.92-3.73-11.12-4.74-13.74-4-0.86 0.23-1 0.51-1.12 0.74l-0.45 0.91-0.63 0.79c-50.69 64.52-127.8 103-206.28 103a257.9 257.9 0 0 1-113.27-25.8c-34.49-16.69-65.6-41-92.47-72.27-4.14-4-11.58-8.3-15.8-4.07l-1.15 1.15zM362.61 500.83c17.25 0 30.19-12.94 30.19-30.19v-34.51c0-17.25-12.94-30.19-30.19-30.19s-34.51 8.62-34.51 25.88v34.51c0 17.25 12.9 34.5 34.51 34.5z" p-id="1174" style="user-select: auto;"></path><path d="M362.61 507.83c-26 0-41.51-21.1-41.51-41.5v-34.51c0-21.59 20.88-32.88 41.51-32.88 21.2 0 37.19 16 37.19 37.19v34.51c0 21.2-15.99 37.19-37.19 37.19z m0-94.89c-13.25 0-27.51 5.9-27.51 18.88v34.51c0 13.33 9.64 27.5 27.51 27.5 13.44 0 23.19-9.75 23.19-23.19v-34.51c0-13.44-9.75-23.19-23.19-23.19zM657.88 500.83c17.25 0 30.19-12.94 30.19-30.19v-34.51c0-17.25-12.94-30.19-30.19-30.19s-30.2 12.94-30.2 30.19v34.51c0 12.94 12.95 30.19 30.2 30.19z" p-id="1175" style="user-select: auto;"></path><path d="M657.88 507.83c-21 0-37.2-20-37.2-37.19v-34.51c0-21.2 16-37.19 37.2-37.19s37.19 16 37.19 37.19v34.51c0 21.2-15.99 37.19-37.19 37.19z m0-94.89c-13.44 0-23.2 9.75-23.2 23.19v34.51c0 9.12 10 23.19 23.2 23.19 13.44 0 23.19-9.75 23.19-23.19v-34.51c0-13.44-9.75-23.19-23.19-23.19z" p-id="1176" style="user-select: auto;"></path></svg>