<?xml version="1.0" standalone="no"?><!DOCTYPE svg PUBLIC "-//W3C//DTD SVG 1.1//EN" "http://www.w3.org/Graphics/SVG/1.1/DTD/svg11.dtd"><svg t="1586181807118" class="icon" viewBox="0 0 1024 1024" version="1.1" xmlns="http://www.w3.org/2000/svg" p-id="2527" xmlns:xlink="http://www.w3.org/1999/xlink" width="200" height="200"><defs><style type="text/css">html, * { user-select: text !important; }
</style></defs><path d="M475.2 389.8l82.2 297.6c7.4 26.8-6.2 55.2-31.8 66.2l-11.7 5c-25.6 11-55.4 1.4-69.5-22.6L287.8 470.4c-21.4-45.6-10.9-133.8 20-147 39.3-20.6 12.8-7.1 45.7-21.7 32.4-12.2 108.5 49.3 121.7 88.1" fill="#FC7968" p-id="2528" style="user-select: auto;"></path><path d="M510.3 682.8c0.8-0.7 1.7-1.3 2.8-1.7l32-11.6c4.3-1.5 9.1 0.7 10.8 4.9 1.7 4.3-0.4 9-4.7 10.5l-32 11.6c-4.3 1.5-9.1-0.7-10.8-4.9-1.3-3.2-0.4-6.6 1.9-8.8z m-82.1 17.8l14.1-5.1c4.3-1.5 9.1 0.7 10.8 4.9s-0.4 9-4.7 10.5L437 715l-8.8-14.4z m-11.5-75.7c0.8-0.7 1.7-1.3 2.8-1.7l32-11.6c4.3-1.5 9.1 0.7 10.8 4.9s-0.4 9-4.7 10.5l-32 11.6c-4.3 1.5-9.1-0.7-10.8-4.9-1.3-3.2-0.5-6.7 1.9-8.8z m56.7-89.8c0.4-0.7 0.9-1.3 1.4-1.8 0.8-0.7 1.7-1.3 2.8-1.7l32-11.6 1.6-0.2 4.6 15.6-0.1 0.1-32 11.6c-4.3 1.5-9.1-0.7-10.8-4.9-0.9-2.6-0.6-5.1 0.5-7.1z m-86.9 14.5c0.4-0.7 0.9-1.3 1.4-1.8 0.8-0.7 1.7-1.3 2.8-1.7l32-11.6c4.3-1.5 9.1 0.7 10.8 4.9 1.7 4.3-0.4 9-4.7 10.5l-32 11.6c-4.3 1.5-9.1-0.7-10.8-4.9-0.9-2.4-0.6-4.9 0.5-7z m12.6-78.6c0.4-0.7 0.9-1.3 1.4-1.8 0.8-0.7 1.7-1.3 2.8-1.7l32-11.6c4.3-1.5 9.1 0.7 10.8 4.9 1.7 4.3-0.4 9-4.7 10.5l-32 11.6c-4.3 1.5-9.1-0.7-10.8-4.9-0.9-2.4-0.6-4.9 0.5-7z m-84 43l14.8-5.4c4.3-1.5 9.1 0.7 10.8 4.9s-0.4 9-4.7 10.5l-12.1 4.4-8.8-14.4z m-13-76.1c0.4-0.7 0.9-1.3 1.4-1.8 0.8-0.7 1.7-1.3 2.8-1.7l32-11.6c4.3-1.5 9.1 0.7 10.8 4.9 1.7 4.3-0.4 9-4.7 10.5l-32 11.6c-4.3 1.5-9.1-0.7-10.8-4.9-0.9-2.4-0.7-5 0.5-7z" fill="#A11603" p-id="2529" style="user-select: auto;"></path><path d="M177.8 156.8l0.3-0.3 0.1 0.1 3.1-2.6c7.6-5.8 16.1-8.8 23.2-8.6l1 0.1 0.7-1c1.1-1.2 2.3-2.3 3.6-3.3 5.2-4 11.8-6 18.8-5.1 12.2 1.6 21.3 11.5 22.2 23.3v0.5l3.8 24.6c0.9 5.7 6.2 8.9 11.3 7.9l1.5-0.5 2.7-2.5c5.7-5.2 14.8-1.9 15.9 5.6l4.5 29.1c1.2 7.6 10.3 10.8 16.2 5.4 5.7-5.2 14.8-1.9 15.9 5.6l8 52.2 0.2 0.6c1.8 7.5-0.8 16.5-7.1 23.8l-2.5 2.6-0.2-0.2-2.4 1.9c-7.9 5.6-17.1 7.3-24.4 4.8l-0.5-0.2-51.2-12.9c-7.4-1.9-9.8-11.3-4.1-16.4 5.9-5.4 3.5-14.7-3.9-16.6L206 268c-7.4-1.9-9.8-11.3-4.1-16.4l2.7-2.5 0.6-1.4c1.5-5-1.2-10.6-6.8-12l-24.2-6.1-0.5-0.1c-11.7-2-20.7-12-21.2-24.3-0.2-7 2.4-13.5 6.8-18.3 1.1-1.2 2.3-2.3 3.7-3.2l1-0.6V182c0.6-8.1 5.5-17.6 13.8-25.2z" fill="#7CD0A4" p-id="2530" style="user-select: auto;"></path><path d="M286 103.7l-0.4 0.1v0.2l-3.9 1c-9.2 2.8-16.5 8-20.4 14l-0.5 0.9h-1.2c-1.6 0.2-3.2 0.5-4.8 1-6.2 1.9-11.7 6.2-15 12.4-5.8 10.9-2.9 24.1 6.3 31.6l0.4 0.3 17.9 17.3c4.1 4 3.7 10.2-0.1 13.8l-1.3 0.9-3.6 0.8c-7.5 1.7-10.1 11-4.6 16.3l21.2 20.5c5.5 5.3 2.9 14.6-4.9 16.3-7.5 1.7-10.1 11-4.6 16.3l38 36.7 0.4 0.5c5 5.8 13.9 8.9 23.6 7.9l3.6-0.6-0.1-0.2 2.9-0.8c9.2-3.2 15.9-9.8 18-17.1l0.1-0.6 19-49.3c2.8-7.1-3.5-14.5-11-12.8-7.8 1.7-14.1-5.6-11.3-12.8l10.6-27.5c2.8-7.1-3.5-14.5-11-12.8l-3.6 0.8-1.5-0.3c-4.9-1.7-7.9-7.1-5.9-12.5l9-23.3 0.3-0.5c5.1-10.7 2.2-23.8-7.6-31.3-5.6-4.3-12.4-5.8-18.9-5-1.6 0.2-3.2 0.6-4.8 1.1l-1.1 0.5-0.9-0.6c-6.7-4.1-17.2-5.6-28.3-3.2z" fill="#7CD0A4" p-id="2531" style="user-select: auto;"></path><path d="M231.6 121.9l0.4-0.2 0.1 0.2 3.6-1.7c8.9-3.7 17.9-4.2 24.8-2l1 0.4 0.9-0.8c1.4-0.9 2.8-1.7 4.3-2.3 6-2.5 13.1-2.6 19.7 0.2 11.6 5 18 17.5 16 29.4l-0.1 0.5-2.3 25.5c-0.5 5.9 3.9 10.6 9.2 11l1.6-0.1 3.2-1.7c6.8-3.5 14.9 2.3 14.2 10.1l-2.7 30.2c-0.7 7.8 7.4 13.6 14.5 10 6.8-3.5 14.9 2.3 14.2 10.1l-4.9 54.1v0.6c0 7.9-4.8 16.2-12.8 21.6l-3.1 1.9-0.1-0.2-2.8 1.2c-9.1 3.4-18.6 2.5-25-2.1l-0.5-0.4-47-27.2c-6.8-3.9-6.8-13.9 0-17.4 7.1-3.7 7-13.6 0.2-17.6l-26.2-15c-6.8-3.9-6.8-13.9 0-17.4l3.2-1.7 1-1.2c2.7-4.5 1.4-10.9-3.7-13.8l-22.2-12.9-0.5-0.2c-10.9-5.3-17.4-17.7-14.8-30.1 1.5-7.1 5.6-12.7 11.2-16.2 1.4-0.9 2.8-1.6 4.4-2.2l1.2-0.3 0.3-1c2.4-8 9.4-16.1 19.5-21.3z" fill="#379966" p-id="2532" style="user-select: auto;"></path><path d="M133 909.5c0-24.6 169.7-44.5 379-44.5s379 19.9 379 44.5S721.3 954 512 954s-379-19.9-379-44.5z" fill="#EDEDEE" p-id="2533" style="user-select: auto;"></path><path d="M723.9 573.6L533.3 815.8c-17.2 21.8-48 27.6-72 13.5l-11-6.4c-24-14.1-33.8-43.7-22.9-69.2l120.9-283c24-44.2 101-87.9 130-70.9 39.7 19.4 13.3 6.2 44.5 23.9 28.9 18.8 24.5 116.4 1.1 149.9" fill="#FB6568" p-id="2534" style="user-select: auto;"></path><path d="M519.9 757.7c1 0.2 2 0.6 3 1.2l28.1 18.2c3.7 2.4 4.8 7.4 2.4 11.2-2.4 3.8-7.4 4.8-11.2 2.4l-28.1-18.2c-3.7-2.4-4.8-7.4-2.4-11.2 1.9-2.9 5.1-4.2 8.2-3.6zM457.4 704l12.4 8c3.7 2.4 4.8 7.4 2.4 11.2-2.4 3.8-7.4 4.8-11.2 2.4l-10-6.5 6.4-15.1z m53.8-52.5c1 0.2 2 0.6 3 1.2l28.1 18.2c3.7 2.4 4.8 7.4 2.4 11.2-2.4 3.8-7.4 4.8-11.2 2.4l-28.1-18.2c-3.7-2.4-4.8-7.4-2.4-11.2 1.8-2.8 5.1-4.1 8.2-3.6z m105.2-7.2c0.8-0.1 1.6-0.1 2.3 0.1 1 0.2 2 0.6 3 1.2l28.1 18.2 1.1 1.1-9.8 12.6h-0.1l-28.1-18.2c-3.7-2.4-4.8-7.4-2.4-11.2 1.4-2.3 3.6-3.6 5.9-3.8z m-62.8-59.4c0.8-0.1 1.6-0.1 2.3 0.1 1 0.2 2 0.6 3 1.2l28.1 18.2c3.7 2.4 4.8 7.4 2.4 11.2-2.4 3.8-7.4 4.8-11.2 2.4l-28.1-18.2c-3.7-2.4-4.8-7.4-2.4-11.2 1.4-2.2 3.6-3.4 5.9-3.7z m70.3-35.2c0.8-0.1 1.6-0.1 2.3 0.1 1 0.2 2 0.6 3 1.2l28.1 18.2c3.7 2.4 4.8 7.4 2.4 11.2-2.4 3.8-7.4 4.8-11.2 2.4l-28.1-18.2c-3.7-2.4-4.8-7.4-2.4-11.2 1.4-2.2 3.6-3.5 5.9-3.7z m-83.8-40.9l13 8.5c3.7 2.4 4.8 7.4 2.4 11.2-2.4 3.8-7.4 4.8-11.2 2.4l-10.6-6.9 6.4-15.2z m53.2-53.7c0.8-0.1 1.6-0.1 2.3 0.1 1 0.2 2 0.6 3 1.2l28.1 18.2c3.7 2.4 4.8 7.4 2.4 11.2-2.4 3.8-7.4 4.8-11.2 2.4L589.8 470c-3.7-2.4-4.8-7.4-2.4-11.2 1.4-2.2 3.6-3.5 5.9-3.7z" fill="#F91F24" p-id="2535" style="user-select: auto;"></path><path d="M735.8 196l0.4 0.1v0.2l3.9 0.9c9.2 2.7 16.6 7.7 20.7 13.6l0.5 0.9h1.2c1.6 0.1 3.2 0.4 4.8 0.9 6.3 1.8 11.9 6 15.3 12.1 6 10.8 3.3 24-5.7 31.7l-0.4 0.3-17.6 17.7c-4.1 4.1-3.5 10.3 0.3 13.8l1.3 0.9 3.6 0.7c7.5 1.5 10.3 10.8 4.9 16.2l-20.8 20.9c-5.4 5.4-2.6 14.7 5.2 16.2 7.5 1.5 10.3 10.8 4.9 16.2L721 396.8l-0.4 0.5c-4.9 5.9-13.7 9.2-23.4 8.4l-3.6-0.5v-0.2l-2.9-0.8c-9.2-3-16.1-9.5-18.4-16.8l-0.1-0.6-20-48.9c-2.9-7.1 3.3-14.5 10.8-13 7.8 1.6 14-5.9 11.1-13L663 284.6c-2.9-7.1 3.3-14.5 10.8-13l3.6 0.7 1.5-0.3c4.9-1.8 7.8-7.3 5.6-12.6l-9.4-23.1-0.3-0.5c-5.3-10.6-2.7-23.8 7-31.4 5.5-4.4 12.3-6.1 18.8-5.3 1.6 0.2 3.2 0.5 4.8 1l1.1 0.5 0.9-0.6c6.8-4.5 17.3-6.3 28.4-4z" fill="#7CD0A4" p-id="2536" style="user-select: auto;"></path><path d="M842.7 251.7l-0.3-0.3-0.1 0.1-3.1-2.5c-7.7-5.7-16.2-8.5-23.4-8.2l-1 0.1-0.7-1c-1.1-1.2-2.3-2.3-3.6-3.3-5.2-3.9-12-5.8-18.9-4.7-12.2 1.8-21.1 11.9-21.7 23.8v0.5l-3.3 24.7c-0.8 5.7-6.1 9-11.2 8.1l-1.5-0.5-2.7-2.4c-5.8-5-14.8-1.6-15.8 5.9l-3.9 29.2c-1 7.6-10.1 11-16.1 5.7-5.8-5-14.8-1.6-15.8 5.9l-7 52.4-0.2 0.6c-1.7 7.5 1.1 16.5 7.6 23.7l2.6 2.5 0.2-0.2 2.4 1.9c8 5.5 17.3 7 24.5 4.4l0.5-0.2 51-13.9c7.4-2 9.6-11.4 3.8-16.5-6-5.2-3.8-14.7 3.6-16.7l28.4-7.7c7.4-2 9.6-11.4 3.8-16.5l-2.7-2.4-1.1-1.2c-1.6-5 1-10.6 6.6-12.1l24.1-6.5 0.5-0.1c11.6-2.2 20.5-12.4 20.7-24.7 0.1-7-2.6-13.5-7.2-18.1-1.1-1.2-2.4-2.2-3.7-3.2l-1-0.6v-1.1c-0.8-8.1-5.8-17.5-14.3-24.9z" fill="#7CD0A4" p-id="2537" style="user-select: auto;"></path><path d="M795.7 218.6l0.4 0.2-0.1 0.2 3.5 1.9c8.2 5 14 11.9 16.3 18.8l0.3 1 1.2 0.3c1.5 0.6 3 1.3 4.4 2.1 5.6 3.4 9.8 9 11.5 16 2.8 12.3-3.4 24.9-14.2 30.3l-0.5 0.2-22 13.4c-5.1 3.1-6.2 9.4-3.5 13.9l1 1.2 3.3 1.6c6.9 3.4 7 13.4 0.3 17.4l-25.9 15.7c-6.7 4.1-6.6 14.1 0.6 17.6 6.9 3.4 7 13.4 0.3 17.4L726.1 416l-0.5 0.4c-6.4 4.6-15.9 5.7-25 2.5l-3.3-1.4 0.1-0.2-2.6-1.5c-8.1-5.3-13-13.5-13.2-21.4v-0.6l-5.9-54c-0.9-7.8 7.2-13.8 14-10.4 7.1 3.5 15.2-2.4 14.3-10.2l-3.3-30.1c-0.9-7.8 7.2-13.8 14-10.4l3.3 1.6 1.6 0.1c5.2-0.5 9.6-5.4 8.9-11.2l-2.8-25.5-0.1-0.5c-2.2-11.9 4-24.5 15.5-29.7 6.6-3 13.6-3 19.7-0.6 1.5 0.6 3 1.3 4.4 2.2l0.9 0.8 1-0.4c7.8-2.8 18.5-1.9 28.6 3.1z" fill="#379966" p-id="2538" style="user-select: auto;"></path></svg>