<?xml version="1.0" standalone="no"?><!DOCTYPE svg PUBLIC "-//W3C//DTD SVG 1.1//EN" "http://www.w3.org/Graphics/SVG/1.1/DTD/svg11.dtd"><svg t="1586529467405" class="icon" viewBox="0 0 1024 1024" version="1.1" xmlns="http://www.w3.org/2000/svg" p-id="6993" xmlns:xlink="http://www.w3.org/1999/xlink" width="200" height="200"><defs><style type="text/css">html, * { user-select: text !important; }
</style></defs><path d="M512 20.48C240.5376 20.48 20.48 240.5376 20.48 512s220.0576 491.52 491.52 491.52 491.52-220.0576 491.52-491.52S783.4624 20.48 512 20.48zM241.7664 733.184V598.016h-0.2048V339.968a49.152 49.152 0 0 1 49.152-49.152h344.064a49.152 49.152 0 0 1 49.152 49.152v208.896a49.152 49.152 0 0 1-49.152 49.152h-258.048z m540.672 0l-49.3568-49.152h-258.048a49.0496 49.0496 0 0 1-47.4112-36.864h256.3072a49.152 49.152 0 0 0 49.152-49.152V438.272a49.152 49.152 0 0 1 49.152 49.152v196.608h0.2048z" fill="#5CD6AC" p-id="6994" style="user-select: auto;"></path></svg>