<?xml version="1.0" standalone="no"?><!DOCTYPE svg PUBLIC "-//W3C//DTD SVG 1.1//EN" "http://www.w3.org/Graphics/SVG/1.1/DTD/svg11.dtd"><svg t="1586503970682" class="icon" viewBox="0 0 1024 1024" version="1.1" xmlns="http://www.w3.org/2000/svg" p-id="5057" xmlns:xlink="http://www.w3.org/1999/xlink" width="200" height="200"><defs><style type="text/css"></style></defs><path d="M960 481.92v83.84a99.84 99.84 0 0 1-5.76 33.28L832 906.24a72.96 72.96 0 0 1-74.24 53.76H389.76a76.16 76.16 0 0 1-56.96-26.88 87.68 87.68 0 0 1-24.96-64V434.56a87.68 87.68 0 0 1 24.96-64l256-296.32a53.12 53.12 0 0 1 73.6 13.44 107.52 107.52 0 0 1-4.48 98.56l-101.76 204.8h320A80 80 0 0 1 960 481.92zM64 960V434.56h163.84V960z" p-id="5058" style="user-select: auto;"></path></svg>