<?xml version="1.0" standalone="no"?><!DOCTYPE svg PUBLIC "-//W3C//DTD SVG 1.1//EN" "http://www.w3.org/Graphics/SVG/1.1/DTD/svg11.dtd"><svg t="1586506638001" class="icon" viewBox="0 0 1024 1024" version="1.1" xmlns="http://www.w3.org/2000/svg" p-id="10013" xmlns:xlink="http://www.w3.org/1999/xlink" width="200" height="200"><defs><style type="text/css"></style></defs><path d="M518.838857 0C242.797714 0 18.176 224.585143 18.176 500.626286c0 276.004571 224.621714 500.626286 500.662857 500.626285 276.004571 0 500.626286-224.621714 500.626286-500.662857C1019.465143 224.621714 794.843429 0 518.802286 0z m-208.457143 291.254857l27.318857-36.388571 115.346286 86.454857-115.346286 86.491428-27.318857-36.425142 66.669715-50.066286-66.669715-50.066286z m208.457143 596.224a205.092571 205.092571 0 0 1-204.8-204.8c0-112.896 91.904-204.8 204.8-204.8 112.859429 0 204.8 91.904 204.8 204.8 0 112.859429-91.940571 204.8-204.8 204.8z m218.441143-496.091428l-27.318857 36.425142-115.346286-86.491428 115.346286-86.454857 27.318857 36.388571-66.669714 50.102857 66.669714 50.029715z" p-id="10014" style="user-select: auto;"></path></svg>