<?xml version="1.0" standalone="no"?><!DOCTYPE svg PUBLIC "-//W3C//DTD SVG 1.1//EN" "http://www.w3.org/Graphics/SVG/1.1/DTD/svg11.dtd"><svg t="1586532129726" class="icon" viewBox="0 0 1024 1024" version="1.1" xmlns="http://www.w3.org/2000/svg" p-id="1319" xmlns:xlink="http://www.w3.org/1999/xlink" width="200" height="200"><defs><style type="text/css">html, * { user-select: text !important; }
</style></defs><path d="M511.33 961C263 961 61.67 759.67 61.67 511.33S263 61.67 511.33 61.67 961 263 961 511.33 759.67 961 511.33 961z m0-67.45c211.1 0 382.22-171.12 382.22-382.22S722.43 129.12 511.33 129.12 129.12 300.24 129.12 511.33s171.12 382.22 382.21 382.22z m33.73-415.94H680a33.73 33.73 0 0 1 0 67.45H545.06V680a33.73 33.73 0 0 1-67.45 0V545.06h-134.9a33.73 33.73 0 1 1 0-67.45h134.9v-134.9a33.73 33.73 0 1 1 67.45 0z" p-id="1320" style="user-select: auto;"></path></svg>