<?xml version="1.0" standalone="no"?><!DOCTYPE svg PUBLIC "-//W3C//DTD SVG 1.1//EN" "http://www.w3.org/Graphics/SVG/1.1/DTD/svg11.dtd"><svg t="1586445304871" class="icon" viewBox="0 0 1024 1024" version="1.1" xmlns="http://www.w3.org/2000/svg" p-id="6602" xmlns:xlink="http://www.w3.org/1999/xlink" width="200" height="200"><defs><style type="text/css">html, * { user-select: text !important; }
</style></defs><path d="M628.9408 82.397867c40.004267 23.074133 53.725867 74.274133 30.583467 114.2784l-8.874667 15.36L505.856 128.341333l8.874667-15.291733a83.694933 83.694933 0 0 1 114.2784-30.583467z" fill="#D0021B" p-id="6603" style="user-select: auto;"></path><path d="M618.9056 852.7872l-36.795733 63.761067a93.730133 93.730133 0 0 1-128 34.338133l-208.759467-120.490667A83.694933 83.694933 0 0 1 329.045333 685.397333l100.215467 54.203734M603.272533 453.700267l-322.901333-186.026667a83.694933 83.694933 0 1 1 83.694933-144.930133l389.870934 225.0752c44.8512 25.941333 60.2112 83.217067 34.338133 128l-36.864 63.829333" fill="#D0021B" p-id="6604" style="user-select: auto;"></path><path d="M615.0144 267.605333l162.2016 93.7984c150.1184 86.698667 182.8864 310.818133 103.697067 447.965867-79.189333 137.216-289.723733 220.910933-439.842134 134.212267l-115.780266-67.1744" fill="#D0021B" p-id="6605" style="user-select: auto;"></path><path d="M433.5616 742.6048l-103.560533-59.8016A83.694933 83.694933 0 0 1 413.696 537.873067l103.2192 59.5968" fill="#D0021B" p-id="6606" style="user-select: auto;"></path><path d="M519.850667 599.176533l-105.745067-61.0304A83.694933 83.694933 0 1 1 497.800533 393.216l104.106667 60.074667" fill="#D0021B" p-id="6607" style="user-select: auto;"></path><path d="M599.586133 463.2576a10.24 10.24 0 0 1-2.798933-1.092267l-104.106667-60.074666A73.454933 73.454933 0 0 0 419.157333 529.2032l105.813334 61.0304a10.24 10.24 0 1 1-10.24 17.749333l-3.003734-1.706666-103.2192-59.5968a73.386667 73.386667 0 1 0-73.454933 127.1808l86.971733 50.244266 12.014934 6.485334a10.24 10.24 0 0 1 2.525866 1.8432l2.048 1.2288a10.24 10.24 0 1 1-10.24 17.749333l-16.384-9.489067-88.064-47.650133a73.454933 73.454933 0 0 0-73.5232 127.1808l79.872 46.148267 0.068267-0.136534 53.930667 31.266134 69.973333 40.413866c137.6256 72.362667 338.1248 2.935467 417.792-134.9632 81.1008-140.629333 37.6832-354.440533-100.010667-433.9712L664.439467 307.882667 358.946133 131.618133A73.454933 73.454933 0 0 0 285.4912 258.730667l322.901333 186.026666a10.24 10.24 0 0 1-8.874666 18.432zM442.231467 372.736L275.2512 276.48a93.934933 93.934933 0 1 1 93.934933-162.6112L620.1344 258.730667l54.545067 31.470933 84.3776 48.7424 5.802666 3.4816 17.476267 10.103467c148.002133 85.469867 194.013867 311.978667 107.451733 461.960533-84.036267 145.6128-293.0688 219.136-440.7296 145.066667l-0.068266 0.2048-4.573867-2.6624a254.1568 254.1568 0 0 1-8.465067-4.642134l-61.781333-35.908266-133.9392-77.277867A93.934933 93.934933 0 0 1 294.912 664.234667a93.934933 93.934933 0 0 1 82.056533-147.6608 93.934933 93.934933 0 0 1 65.262934-143.837867zM650.581333 191.556267A73.454933 73.454933 0 1 0 523.4688 118.101333l-3.6864 6.417067 127.112533 73.5232 3.754667-6.485333z m-16.5888-118.101334c44.919467 25.941333 60.279467 83.421867 34.338134 128.341334l-13.585067 23.552-9.284267-4.437334L500.667733 137.216l-8.533333-5.7344 13.653333-23.552a93.934933 93.934933 0 0 1 128.273067-34.338133z" fill="#D0021B" p-id="6608" style="user-select: auto;"></path></svg>