<?xml version="1.0" standalone="no"?><!DOCTYPE svg PUBLIC "-//W3C//DTD SVG 1.1//EN" "http://www.w3.org/Graphics/SVG/1.1/DTD/svg11.dtd"><svg t="1586437784619" class="icon" viewBox="0 0 1024 1024" version="1.1" xmlns="http://www.w3.org/2000/svg" p-id="2153" xmlns:xlink="http://www.w3.org/1999/xlink" width="200" height="200"><defs><style type="text/css">html, * { user-select: text !important; }
</style></defs><path d="M96 896c-17.664 0-32-14.304-32-32L64 416c0-17.664 14.336-32 32-32s32 14.336 32 32l0 448C128 881.696 113.664 896 96 896zM864.32 384l-189.376 0c13.792-32 29.6-114.72 20.352-189.952-7.328-60.032-42.368-106.08-93.728-123.456-38.08-12.896-78.208-6.624-99.84 15.456-25.792 26.304-37.888 75.904-50.688 128.352-8.384 34.336-17.056 69.888-27.84 88.16-31.104 52.896-96.256 77.024-109.376 81.44L224 384c-17.664 0-32 14.336-32 32l0 448c0 17.696 14.336 32 32 32l86.592 0c26.752 14.496 126.4 64 241.76 64l215.936 0c35.552 0 96.8-13.76 119.712-51.712 23.136-38.464 71.936-388.672 71.936-427.488C959.936 427.328 907.616 384 864.32 384zM833.152 875.296c-4.8 8-36.48 20.704-64.864 20.704l-215.936 0c-114.336 0-215.168-64-216.16-64 0 0-0.032 0-0.032 0-4.8 0-10.112 0-16.128 0L256 832 256 448l64 0c2.624 0 4.96-0.896 7.392-1.504 0.512-0.128 0.992 0.032 1.504-0.128 0.224-0.064 0.864-0.256 1.696-0.512 0.832-0.288 1.728-0.448 2.528-0.832 19.456-6.432 102.528-37.344 145.216-110.016 15.52-26.4 24.928-64.8 34.848-105.408 9.248-37.856 20.736-84.928 34.112-98.592 3.072-2.624 18.016-5.952 36.8 1.44 15.328 6.048 41.952 23.136 47.648 69.664 12.608 102.496-31.392 200.096-31.84 201.088-4.576 9.92-3.744 21.152 2.144 30.336 5.888 9.152 16 14.432 26.912 14.432l235.328 0c8.672 0 31.616 15.04 31.616 32.768C895.936 523.424 846.528 844.992 833.152 875.296z" p-id="2154" style="user-select: auto;"></path></svg>