<?xml version="1.0" standalone="no"?><!DOCTYPE svg PUBLIC "-//W3C//DTD SVG 1.1//EN" "http://www.w3.org/Graphics/SVG/1.1/DTD/svg11.dtd"><svg t="1586503876821" class="icon" viewBox="0 0 1024 1024" version="1.1" xmlns="http://www.w3.org/2000/svg" p-id="3974" xmlns:xlink="http://www.w3.org/1999/xlink" width="200" height="200"><defs><style type="text/css"></style></defs><path d="M1008.655064 6.338944a35.582967 35.582967 0 0 1 15.486986 36.477966l-146.298864 877.729186a36.029967 36.029967 0 0 1-36.029967 30.271972 38.909964 38.909964 0 0 1-13.695987-2.879997l-258.80676-105.659902-138.299872 168.505843a33.534969 33.534969 0 0 1-27.966974 13.182988 31.358971 31.358971 0 0 1-12.606988-2.303998 35.582967 35.582967 0 0 1-17.407984-13.439987 35.646967 35.646967 0 0 1-6.590994-20.861981V788.007219l493.678542-605.162439-610.794433 528.62151-225.719791-92.732914C9.520991 613.485381 1.840998 602.990391 0.752999 587.374405a33.918969 33.918969 0 0 1 18.302983-33.726969L969.8091 5.122945a35.198967 35.198967 0 0 1 18.367983-5.119995 35.198967 35.198967 0 0 1 20.606981 6.335994z" p-id="3975" style="user-select: auto;"></path></svg>