<?xml version="1.0" standalone="no"?><!DOCTYPE svg PUBLIC "-//W3C//DTD SVG 1.1//EN" "http://www.w3.org/Graphics/SVG/1.1/DTD/svg11.dtd"><svg t="1586442536724" class="icon" viewBox="0 0 1024 1024" version="1.1" xmlns="http://www.w3.org/2000/svg" p-id="3506" xmlns:xlink="http://www.w3.org/1999/xlink" width="200" height="200"><defs><style type="text/css">html, * { user-select: text !important; }
</style></defs><path d="M895.075 914.853H8.8l201.426-161.141V230.004c0-66.743 54.114-120.856 120.856-120.856h563.993c66.743 0 120.856 54.113 120.856 120.856v563.993c0 66.742-54.113 120.856-120.856 120.856z m-69.653-610.161H723.449v-33.99h-62.316v33.99H553.497V272.59H491.18v32.102H387.32v50.986h103.86v26.437h16.996c-1.279 2.537-3.167 5.665-5.665 9.442-1.279 1.279-1.889 2.537-1.889 3.777H389.21v52.874h81.2c-22.66 32.752-51.635 64.205-86.865 94.42 6.275 22.68 11.33 45.97 15.107 69.869a771.028 771.028 0 0 0 47.209-43.432v137.85h60.428v-207.72c12.57-17.606 24.548-34.601 35.859-50.987h281.386v-52.875h-253.04c1.238-1.239 2.497-3.777 3.776-7.553 1.24-2.499 1.889-4.386 1.889-5.665l-22.66-3.777v-22.66h107.636v26.437h62.316v-26.437h101.972v-50.986z m1.888 254.93H717.785v-1.869l83.088-34.01V468.98H553.497v50.986h162.399l-58.54 22.66v16.996H527.06v50.986h130.298v24.548c0 13.868-7.554 20.793-22.66 20.793-13.869 0-33.992-0.63-60.429-1.908 3.777 18.883 7.554 35.878 11.33 50.986 32.713 0 59.15-0.649 79.311-1.889 35.231-2.536 52.875-20.771 52.875-54.762v-37.768H827.31v-50.986z" fill="#F98700" p-id="3507" style="user-select: auto;"></path></svg>