<?xml version="1.0" standalone="no"?><!DOCTYPE svg PUBLIC "-//W3C//DTD SVG 1.1//EN" "http://www.w3.org/Graphics/SVG/1.1/DTD/svg11.dtd"><svg t="1586181798341" class="icon" viewBox="0 0 1024 1024" version="1.1" xmlns="http://www.w3.org/2000/svg" p-id="2219" xmlns:xlink="http://www.w3.org/1999/xlink" width="200" height="200"><defs><style type="text/css">html, * { user-select: text !important; }
</style></defs><path d="M133 909.5c0-24.6 169.7-44.5 379-44.5s379 19.9 379 44.5S721.3 954 512 954s-379-19.9-379-44.5z" fill="#EDEDEE" p-id="2220" style="user-select: auto;"></path><path d="M130 724.7c0-5.3 4.3-9.7 9.7-9.7h708.7c5.3 0 9.7 4.3 9.7 9.7v38.7c0 5.3-4.3 9.7-9.7 9.7H139.7c-5.3 0-9.7-4.3-9.7-9.7v-38.7z" fill="#976C4F" p-id="2221" style="user-select: auto;"></path><path d="M87 657.3c0-7.4 6-13.3 13.3-13.3h786.3c7.4 0 13.3 6 13.3 13.3v53.3c0 7.4-6 13.3-13.3 13.3H100.3C93 724 87 718 87 710.7v-53.4z" fill="#BD9981" p-id="2222" style="user-select: auto;"></path><path d="M786.9 372.3c-26.2-0.3-54.7 17.6-71.5 47.6-22.4 40-15.4 86.4 15.5 103.7 30.9 17.3 74.1-1.1 96.4-41.1 22.4-40 15.4-86.4-15.5-103.7-7.7-4.4-16.2-6.4-24.9-6.5z m7-30.6c12.4 0.3 24.4 3.4 35.5 9.6 44.1 24.7 55 89.2 24.3 144.1-30.7 54.9-91.4 79.4-135.5 54.7-44.1-24.7-55-89.2-24.3-144.1 23-41.2 62.9-65.2 100-64.3z" fill="#66605A" p-id="2223" style="user-select: auto;"></path><path d="M556 290c0-26 22.2-47 49.5-47s49.5 21 49.5 47h-12.8c0-18.9-16.4-34.2-36.7-34.2s-36.7 15.3-36.7 34.2H556z" fill="#EA6308" p-id="2224" style="user-select: auto;"></path><path d="M553.3 284h103.4c25.6 0 48.2 13 61.6 32.7L725 329H485l6.7-12.3c13.4-19.7 36-32.7 61.6-32.7z" fill="#F99552" p-id="2225" style="user-select: auto;"></path><path d="M470 615.5c0-15.2 12.3-27.5 27.5-27.5h217c15.2 0 27.5 12.3 27.5 27.5S729.7 643 714.5 643h-217c-15.2 0-27.5-12.3-27.5-27.5z" fill="#66605A" p-id="2226" style="user-select: auto;"></path><path d="M330.3 364.6c9.3 9.4 114 93.1 183.7 141L471.3 551c-36-17.5-172.6-138.7-173.3-150.6-0.7-11.9 22.9-45.1 32.3-35.8z" fill="#FBB585" p-id="2227" style="user-select: auto;"></path><path d="M484 328h243l6.1 5.5c32.7 32.6 52.9 77.6 52.9 127.2s-20.2 94.7-52.9 127.2l-4.4 4H482.2l-4.4-4c-32.7-32.6-52.9-77.6-52.9-127.2s20.2-94.7 52.9-127.2l6.2-5.5z" fill="#FED572" p-id="2228" style="user-select: auto;"></path><path d="M209 642h27c43.1 0 78-34.9 78-78v-59.4c0-10.3-8.3-18.6-18.6-18.6H149.6c-10.3 0-18.6 8.3-18.6 18.6V564c0 43.1 34.9 78 78 78z" fill="#7CD0A4" p-id="2229" style="user-select: auto;"></path><path d="M291 412s0 0.5-0.2 1.3-0.5 2.1-1 3.6c-0.6 1.5-1.4 3.3-2.6 5.2-1.2 1.9-2.7 4-4.5 6-1.8 2-4 4.1-6.4 6.1-2.4 1.9-5.2 3.8-8.1 5.5-3 1.7-6.1 3.2-9.4 4.5-0.8 0.3-1.7 0.6-2.5 0.9-0.8 0.3-1.7 0.6-2.5 0.8-0.8 0.3-1.7 0.5-2.6 0.8-0.9 0.2-1.8 0.5-2.7 0.7l-0.7 0.2-0.3 0.1-0.3 0.1-1.2 0.3-1.2 0.3-0.6 0.1-0.7 0.2c-1.5 0.3-3 0.6-4.4 0.8-2.9 0.6-5.8 1.1-8.5 1.7-1.3 0.3-2.7 0.5-3.9 0.8-0.7 0.2-1.3 0.3-1.9 0.4-0.6 0.2-1.2 0.3-1.8 0.4-2.4 0.6-4.6 1.2-6.6 1.9s-3.8 1.4-5.3 2.2c-1.6 0.8-2.9 1.7-3.9 2.6-0.3 0.2-0.5 0.5-0.7 0.7l-0.6 0.6c-0.2 0.2-0.4 0.4-0.5 0.6-0.2 0.2-0.3 0.4-0.4 0.5-0.2 0.3-0.4 0.6-0.5 0.8-0.1 0.2-0.2 0.3-0.2 0.3s-0.1-0.1-0.2-0.3c-0.1-0.2-0.3-0.5-0.4-0.9-0.1-0.2-0.2-0.4-0.2-0.7-0.1-0.3-0.1-0.6-0.2-0.9-0.1-0.7-0.2-1.4-0.2-2.3 0-1.8 0.4-3.9 1.4-6.2 1-2.3 2.4-4.7 4.4-7 1.9-2.3 4.3-4.4 7-6.3 0.3-0.2 0.7-0.5 1-0.7 0.3-0.2 0.7-0.5 1-0.7 0.4-0.2 0.7-0.4 1.1-0.7 0.4-0.2 0.7-0.4 1.1-0.6 1.5-0.8 3-1.6 4.6-2.4 3.2-1.4 6.5-2.6 9.9-3.5 1.7-0.5 3.4-0.9 5.1-1.2l1.1-0.2 1.2-0.3 1.2-0.2c0.2-0.1 0.4-0.1 0.6-0.1l0.5-0.1c0.7-0.2 1.4-0.3 2.1-0.4 0.7-0.2 1.5-0.3 2.2-0.5 0.4-0.1 0.7-0.2 1.1-0.2 0.4-0.1 0.7-0.2 1.1-0.3 0.4-0.1 0.7-0.2 1.1-0.2 0.4-0.1 0.7-0.2 1.1-0.3 0.7-0.2 1.4-0.3 2.2-0.5 0.7-0.2 1.4-0.3 2.1-0.5l0.5-0.1 0.5-0.1c0.4-0.1 0.7-0.2 1.1-0.3 0.4-0.1 0.7-0.2 1-0.2 0.3-0.1 0.7-0.2 1-0.3 2.7-0.7 5.3-1.4 7.8-2.2 2.5-0.8 4.9-1.5 7.1-2.4 2.2-0.8 4.2-1.6 6-2.4 1.8-0.8 3.4-1.5 4.7-2.2 1.3-0.7 2.3-1.3 3-1.7 0.6-0.6 1-0.9 1-0.9zM132 351s0 0.5 0.2 1.3c0.2 0.9 0.5 2.1 1 3.6 0.6 1.6 1.4 3.4 2.6 5.3 1.2 1.9 2.7 4 4.5 6.1 1.8 2.1 4 4.2 6.4 6.2 2.4 2 5.2 3.9 8.1 5.6 3 1.7 6.1 3.3 9.4 4.6 0.8 0.4 1.7 0.6 2.5 0.9 0.8 0.3 1.7 0.6 2.5 0.9 0.8 0.3 1.7 0.5 2.6 0.8 0.9 0.2 1.8 0.5 2.7 0.7l0.7 0.2 0.3 0.1 0.3 0.1 1.2 0.3 1.2 0.3 0.6 0.1 0.7 0.2c1.5 0.3 3 0.6 4.4 0.9 2.9 0.6 5.8 1.2 8.5 1.7 1.3 0.3 2.7 0.6 3.9 0.8 0.7 0.2 1.3 0.3 1.9 0.5 0.6 0.2 1.2 0.3 1.8 0.5 2.4 0.6 4.6 1.2 6.6 1.9s3.8 1.4 5.3 2.3c1.6 0.8 2.9 1.7 3.9 2.6 0.3 0.2 0.5 0.5 0.7 0.7l0.6 0.6c0.2 0.2 0.4 0.4 0.5 0.6 0.2 0.2 0.3 0.4 0.4 0.6 0.2 0.3 0.4 0.6 0.5 0.8 0.1 0.2 0.2 0.3 0.2 0.3s0.1-0.1 0.2-0.3c0.1-0.2 0.3-0.5 0.4-1 0.1-0.2 0.2-0.5 0.2-0.7 0.1-0.3 0.1-0.6 0.2-0.9 0.1-0.7 0.2-1.5 0.2-2.4 0-1.8-0.4-4-1.4-6.4-1-2.4-2.4-4.8-4.4-7.1-1.9-2.3-4.3-4.5-7-6.5-0.3-0.2-0.7-0.5-1-0.7-0.3-0.2-0.7-0.5-1-0.7-0.4-0.2-0.7-0.5-1.1-0.7-0.4-0.2-0.7-0.5-1.1-0.6-1.5-0.9-3-1.7-4.6-2.4-3.2-1.5-6.5-2.7-9.9-3.6-1.7-0.5-3.4-0.9-5.1-1.3l-1.1-0.2-1.2-0.3-1-0.3c-0.2-0.1-0.4-0.1-0.6-0.1l-0.5-0.1c-0.7-0.2-1.4-0.3-2.1-0.5-0.7-0.2-1.5-0.3-2.2-0.5-0.4-0.1-0.7-0.2-1.1-0.2-0.4-0.1-0.7-0.2-1.1-0.3-0.4-0.1-0.7-0.2-1.1-0.2-0.4-0.1-0.7-0.2-1.1-0.3-0.7-0.2-1.4-0.3-2.2-0.5-0.7-0.2-1.4-0.3-2.1-0.5l-0.5-0.1-0.5-0.1c-0.4-0.1-0.7-0.2-1.1-0.3-0.4-0.1-0.7-0.2-1-0.2-0.3-0.1-0.7-0.2-1-0.3-2.7-0.7-5.3-1.5-7.8-2.2-2.5-0.8-4.9-1.6-7.1-2.4-2.2-0.8-4.2-1.6-6-2.4-1.8-0.8-3.4-1.6-4.7-2.3-1.3-0.7-2.3-1.3-3-1.7-0.8-0.5-1.2-0.8-1.2-0.8z" fill="#44BC7D" p-id="2230" style="user-select: auto;"></path></svg>