<?xml version="1.0" standalone="no"?><!DOCTYPE svg PUBLIC "-//W3C//DTD SVG 1.1//EN" "http://www.w3.org/Graphics/SVG/1.1/DTD/svg11.dtd"><svg t="1586532121427" class="icon" viewBox="0 0 1024 1024" version="1.1" xmlns="http://www.w3.org/2000/svg" p-id="1026" xmlns:xlink="http://www.w3.org/1999/xlink" width="200" height="200"><defs><style type="text/css">html, * { user-select: text !important; }
</style></defs><path d="M546 882.4v57.8a33.8 33.8 0 1 1-67.6 0v-57.8C282.69 865.28 129.16 701 129.16 500.8v-22.53a33.8 33.8 0 0 1 67.6 0v22.53c0 174.2 141.24 315.47 315.47 315.47S827.69 675 827.69 500.8v-22.53a33.8 33.8 0 0 1 67.6 0v22.53c0 200.2-153.53 364.48-349.29 381.6zM286.89 297.89c0-124.39 100.87-225.22 225.34-225.22s225.33 100.91 225.33 225.22v203c0 124.39-100.87 225.22-225.33 225.22s-225.34-100.89-225.34-225.2z m67.6 0v203c0 87 70.66 157.62 157.74 157.62S670 588 670 500.91v-203c0-87-70.65-157.62-157.73-157.62s-157.78 70.54-157.78 157.6z" p-id="1027" style="user-select: auto;"></path></svg>